<svg width="200" height="347" viewBox="0 0 200 347" fill="none" xmlns="http://www.w3.org/2000/svg">
<path d="M200 29.9005C200 21.7125 189.158 18.8116 185.069 25.9056L6.91359 335.005C3.83962 340.338 7.68893 347 13.8447 347L192 347C196.418 347 200 343.418 200 339L200 29.9005Z" fill="#221C35"/>
<g clip-path="url(#clip0_192_1369)">
<path d="M145.354 280.486L145.385 274.537C145.385 274.275 145.31 274.018 145.167 273.791C145.024 273.564 144.818 273.375 144.57 273.242L121.487 261.125C121.337 261.045 121.167 261.003 120.994 261.002C120.821 261.002 120.651 261.042 120.5 261.12C120.349 261.198 120.224 261.31 120.136 261.446C120.049 261.582 120.002 261.736 120 261.894L120 267.69C120.001 267.951 120.078 268.207 120.222 268.433C120.366 268.66 120.573 268.848 120.821 268.979L135.878 276.895C136.028 276.973 136.153 277.085 136.24 277.22C136.326 277.356 136.372 277.51 136.372 277.667C136.372 277.824 136.326 277.978 136.24 278.113C136.153 278.249 136.028 278.361 135.878 278.439L120.821 286.355C120.582 286.48 120.382 286.657 120.238 286.87C120.095 287.084 120.013 287.327 120 287.577L120 293.101C120.001 293.254 120.045 293.405 120.13 293.538C120.215 293.67 120.336 293.78 120.482 293.857C120.628 293.934 120.794 293.974 120.963 293.975C121.131 293.975 121.297 293.935 121.443 293.859L144.532 281.764C144.782 281.636 144.989 281.451 145.134 281.226C145.278 281.001 145.354 280.746 145.354 280.486Z" fill="#FF595A"/>
</g>
<defs>
<clipPath id="clip0_192_1369">
<rect width="33" height="50.7692" fill="white" transform="translate(170.769 261) rotate(90)"/>
</clipPath>
</defs>
</svg>
