<svg width="51" height="33" viewBox="0 0 51 33" fill="none" xmlns="http://www.w3.org/2000/svg">
<g clip-path="url(#clip0_71_1937)">
<path d="M25.3535 19.4858L25.3846 13.5372C25.385 13.2755 25.31 13.0182 25.167 12.791C25.024 12.5638 24.818 12.3746 24.5696 12.2423L1.48699 0.124586C1.3373 0.0453708 1.16735 0.00326636 0.994131 0.00248418C0.820915 0.00170199 0.65051 0.0422695 0.499961 0.120129C0.349411 0.197988 0.223993 0.31041 0.136255 0.446148C0.0485167 0.581887 0.00153301 0.736184 1.40352e-06 0.893606L1.15018e-06 6.68953C0.00131339 6.95085 0.0777962 7.20732 0.221862 7.43347C0.365928 7.65963 0.572568 7.84761 0.821269 7.97877L15.8778 15.8951C16.0279 15.9726 16.1527 16.0849 16.2395 16.2205C16.3263 16.3561 16.372 16.5101 16.372 16.667C16.372 16.8239 16.3263 16.9779 16.2395 17.1135C16.1527 17.2491 16.0279 17.3613 15.8778 17.4388L0.821268 25.3552C0.582375 25.4796 0.381869 25.6567 0.238312 25.8702C0.0947536 26.0837 0.0127891 26.3267 2.80884e-07 26.5766L3.93999e-08 32.1011C0.000568423 32.2544 0.0453797 32.4049 0.129963 32.5376C0.214548 32.6703 0.335945 32.7804 0.482031 32.8571C0.628117 32.9338 0.793781 32.9743 0.962484 32.9746C1.13119 32.9749 1.29703 32.935 1.44344 32.8588L24.5322 20.7637C24.7817 20.6362 24.9892 20.4506 25.1335 20.226C25.2779 20.0014 25.3538 19.7459 25.3535 19.4858Z" fill="#FF595A"/>
</g>
<defs>
<clipPath id="clip0_71_1937">
<rect width="33" height="50.7692" fill="white" transform="translate(50.7692 2.21919e-06) rotate(90)"/>
</clipPath>
</defs>
</svg>
