<svg width="48" height="48" viewBox="0 0 48 48" fill="none" xmlns="http://www.w3.org/2000/svg">
<g clip-path="url(#clip0_274_1236)">
<path opacity="0.4" d="M42.9798 32.7475C42.0268 32.7475 41.1351 33.0146 40.3752 33.4776L37.4394 30.4923C39.5957 27.9442 40.7714 24.7493 40.7714 21.3732C40.7714 18.007 39.6025 14.821 37.4584 12.2766L40.3752 9.31065C41.1351 9.77366 42.0268 10.0406 42.9798 10.0406C45.748 10.0406 48.0001 7.78852 48.0001 5.0203C48.0001 2.25207 45.7479 0 42.9798 0C40.2117 0 37.9595 2.25207 37.9595 5.0203C37.9595 5.81407 38.1454 6.56492 38.4748 7.23281L35.4447 10.314C29.8966 5.88362 21.7614 6.23556 16.6255 11.3715C11.446 16.551 11.1314 24.7807 15.6807 30.3313L13.696 32.316L11.2544 29.8744L1.37639 39.7523C-0.458782 41.5875 -0.458782 44.5734 1.3763 46.4084L1.59159 46.6237C2.50918 47.5412 3.71441 48 4.91974 48C6.12507 48 7.3303 47.5412 8.24789 46.6236L18.1259 36.7456L15.6843 34.3041L17.6689 32.3194C20.2644 34.4467 23.4456 35.5108 26.6271 35.5108C29.7422 35.5108 32.8566 34.49 35.4217 32.4505L38.4749 35.5551C38.1456 36.2231 37.9596 36.974 37.9596 37.7677C37.9596 40.536 40.2117 42.788 42.9799 42.788C45.7481 42.788 48.0002 40.536 48.0002 37.7677C48.0002 34.9995 45.7479 32.7475 42.9798 32.7475ZM6.25956 44.6355C5.52081 45.3742 4.31867 45.3743 3.57991 44.6356L3.36462 44.4203C2.62587 43.6814 2.62587 42.4794 3.36462 41.7405L11.2543 33.8509L14.1492 36.7457L6.25956 44.6355ZM37.9595 21.3731C37.9595 23.9893 37.0783 26.4698 35.4574 28.4769L30.96 23.9037C31.396 23.1601 31.6472 22.2956 31.6472 21.3731C31.6472 20.4614 31.4017 19.6066 30.9752 18.8688L35.4758 14.2923C37.0849 16.2955 37.9595 18.7669 37.9595 21.3731ZM28.8355 21.3731C28.8355 22.5908 27.8448 23.5816 26.627 23.5816C25.4092 23.5816 24.4185 22.5909 24.4185 21.3731C24.4185 20.1553 25.4092 19.1646 26.627 19.1646C27.8448 19.1646 28.8355 20.1554 28.8355 21.3731ZM42.9798 2.81181C44.1976 2.81181 45.1883 3.8025 45.1883 5.0203C45.1883 6.238 44.1976 7.22878 42.9798 7.22878C41.762 7.22878 40.7713 6.23809 40.7713 5.0203C40.7713 3.8025 41.762 2.81181 42.9798 2.81181ZM18.6136 29.3865C14.195 24.9679 14.195 17.7784 18.6136 13.3597C20.8229 11.1505 23.7249 10.0458 26.627 10.0458C29.037 10.0458 31.4466 10.8085 33.46 12.3322L28.9456 16.9226C28.2515 16.5595 27.4631 16.3529 26.627 16.3529C23.8588 16.3529 21.6067 18.605 21.6067 21.3732C21.6067 24.1414 23.8588 26.3935 26.627 26.3935C27.4522 26.3935 28.2307 26.1921 28.9182 25.8379L33.4363 30.432C28.9998 33.7712 22.6505 33.4233 18.6136 29.3865ZM42.9798 39.9762C41.762 39.9762 40.7713 38.9855 40.7713 37.7677C40.7713 36.5499 41.762 35.5593 42.9798 35.5593C44.1976 35.5593 45.1883 36.5499 45.1883 37.7677C45.1883 38.9855 44.1975 39.9762 42.9798 39.9762Z" fill="#FF595A"/>
<path fill-rule="evenodd" clip-rule="evenodd" d="M42.9798 32.7475C42.0268 32.7475 41.1351 33.0146 40.3752 33.4776L37.4394 30.4923L35.4574 28.4769L30.96 23.9037C31.396 23.1601 31.6472 22.2956 31.6472 21.3731C31.6472 20.4614 31.4017 19.6066 30.9752 18.8688L35.4758 14.2923L37.4584 12.2766L40.3752 9.31065C41.1351 9.77366 42.0268 10.0406 42.9798 10.0406C45.748 10.0406 48.0001 7.78852 48.0001 5.0203C48.0001 2.25207 45.7479 0 42.9798 0C40.2117 0 37.9595 2.25207 37.9595 5.0203C37.9595 5.81407 38.1454 6.56492 38.4748 7.23281L35.4447 10.314L33.46 12.3322L28.9456 16.9226C28.2515 16.5595 27.4631 16.3529 26.627 16.3529C23.8588 16.3529 21.6067 18.605 21.6067 21.3732C21.6067 24.1414 23.8588 26.3935 26.627 26.3935C27.4522 26.3935 28.2307 26.1921 28.9182 25.8379L33.4363 30.432L35.4217 32.4505L38.4749 35.5551C38.1456 36.2231 37.9596 36.974 37.9596 37.7677C37.9596 40.536 40.2117 42.788 42.9799 42.788C45.7481 42.788 48.0002 40.536 48.0002 37.7677C48.0002 34.9995 45.7479 32.7475 42.9798 32.7475ZM28.8355 21.3731C28.8355 22.5908 27.8448 23.5816 26.627 23.5816C25.4092 23.5816 24.4185 22.5909 24.4185 21.3731C24.4185 20.1553 25.4092 19.1646 26.627 19.1646C27.8448 19.1646 28.8355 20.1554 28.8355 21.3731ZM42.9798 2.81181C44.1976 2.81181 45.1883 3.8025 45.1883 5.0203C45.1883 6.238 44.1976 7.22878 42.9798 7.22878C41.762 7.22878 40.7713 6.23809 40.7713 5.0203C40.7713 3.8025 41.762 2.81181 42.9798 2.81181ZM42.9798 39.9762C41.762 39.9762 40.7713 38.9855 40.7713 37.7677C40.7713 36.5499 41.762 35.5593 42.9798 35.5593C44.1976 35.5593 45.1883 36.5499 45.1883 37.7677C45.1883 38.9855 44.1975 39.9762 42.9798 39.9762Z" fill="#FF595A"/>
</g>
<defs>
<clipPath id="clip0_274_1236">
<rect width="48" height="48" fill="white"/>
</clipPath>
</defs>
</svg>
