<svg width="48" height="48" viewBox="0 0 48 48" fill="none" xmlns="http://www.w3.org/2000/svg">
<g clip-path="url(#clip0_274_1192)">
<path opacity="0.4" d="M15.5371 48H35.2246C35.2246 46.2475 35.2246 39.2892 35.2246 33.8438C35.2246 30.6019 35.2246 27.8963 35.2246 27.1445L38.0371 21.5195C38.0371 18.7938 38.0371 5.1825 38.0371 2.8125H32.4121V0C30.3853 0 14.6929 0 12.7246 0V11.3438H9.91211V21.77L15.5371 27.395V33.8438V48ZM32.4121 45.1875H18.3496V33.8438H32.4121V45.1875ZM35.2246 5.625V11.3438H32.4121C32.4121 9.51216 32.4121 7.4205 32.4121 5.625H35.2246ZM29.5996 2.8125V11.3438H26.7871V2.8125H29.5996ZM23.9746 2.8125V11.3438H21.1621V2.8125H23.9746ZM15.5371 2.8125H18.3496V11.3438H15.5371V2.8125ZM12.7246 20.605V14.1553H23.7337C23.1533 15.7932 21.5893 16.9688 19.7559 16.9688C18.4345 16.9688 16.8543 16.9688 15.5371 16.9688V19.7813H21.1621C22.7129 19.7813 23.9746 21.0429 23.9746 22.5938H26.7871C26.7871 20.7038 25.8492 19.0298 24.4154 18.0094C25.534 17.0171 26.336 15.6756 26.6456 14.1563H35.2246V20.8555L32.4121 26.4805V31.0313H18.3496V26.23L12.7246 20.605Z" fill="#FF595A"/>
<path fill-rule="evenodd" clip-rule="evenodd" d="M35.2246 27.1445V33.8438H32.4121H18.3496H15.5371V27.395L9.91211 21.77V11.3438H12.7246V0H32.4121V2.8125H38.0371V21.5195L35.2246 27.1445ZM35.2246 11.3438V5.625H32.4121V11.3438H35.2246ZM29.5996 11.3438V2.8125H26.7871V11.3438H29.5996ZM23.9746 11.3438V2.8125H21.1621V11.3438H23.9746ZM18.3496 2.8125H15.5371V11.3438H18.3496V2.8125ZM12.7246 14.1553V20.605L18.3496 26.23V31.0313H32.4121V26.4805L35.2246 20.8555V14.1563H26.6456C26.336 15.6756 25.534 17.0171 24.4154 18.0094C25.8492 19.0298 26.7871 20.7038 26.7871 22.5938H23.9746C23.9746 21.0429 22.7129 19.7813 21.1621 19.7813H15.5371V16.9688H19.7559C21.5893 16.9688 23.1533 15.7932 23.7337 14.1553H12.7246Z" fill="#FF595A"/>
<path opacity="0.4" d="M0 14.8547L6.03178 12.9306L6.88678 15.611L0.855 17.535L0 14.8547Z" fill="#FF595A"/>
<path opacity="0.4" d="M41.0786 7.08228L47.1104 5.15818L47.9654 7.8385L41.9336 9.76259L41.0786 7.08228Z" fill="#FF595A"/>
<path opacity="0.4" d="M0.000976562 7.83667L0.855977 5.15636L6.88775 7.08045L6.03275 9.76076L0.000976562 7.83667Z" fill="#FF595A"/>
<path opacity="0.4" d="M41.0703 15.5928L41.9253 12.9125L47.9571 14.8366L47.1021 17.5169L41.0703 15.5928Z" fill="#FF595A"/>
</g>
<defs>
<clipPath id="clip0_274_1192">
<rect width="48" height="48" fill="white"/>
</clipPath>
</defs>
</svg>
