<svg width="48" height="48" viewBox="0 0 48 48" fill="none" xmlns="http://www.w3.org/2000/svg">
<g clip-path="url(#clip0_274_1213)">
<path opacity="0.4" d="M37.8033 35.8152L27.9829 25.9948L32.4292 21.5485C34.2858 22.3286 36.35 22.6104 38.3448 22.3432C40.7849 22.0164 42.9946 20.9237 44.735 19.1833C46.2615 17.6568 47.3051 15.7347 47.753 13.6248C48.1864 11.5836 48.0474 9.46056 47.351 7.48511L46.6091 5.38052L40.2967 11.6929L36.9832 11.0302L36.3205 7.7167L42.6329 1.40431L40.5283 0.662419C38.5528 -0.0340207 36.4301 -0.173196 34.3886 0.260357C32.2787 0.708249 30.3567 1.75192 28.8301 3.27836C27.0897 5.01875 25.9971 7.22841 25.6702 9.66862C25.403 11.6636 25.6848 13.7277 26.4649 15.5842L22.0186 20.0305L19.7492 17.7611L23.8776 13.6327L5.70057 0L0 5.70057L13.6328 23.8776L17.7612 19.7492L20.0306 22.0186L15.5843 26.4649C13.7277 25.6847 11.6634 25.4029 9.66872 25.6702C7.2286 25.997 5.01894 27.0897 3.27845 28.8301C1.75202 30.3566 0.708343 32.2787 0.26045 34.3886C-0.172915 36.4298 -0.033927 38.5528 0.662513 40.5283L1.40441 42.6329L7.71679 36.3205L11.0303 36.9832L11.693 40.2967L5.38061 46.6091L7.48521 47.351C8.7092 47.7825 9.98962 48 11.2723 48C12.0598 48 12.8482 47.918 13.6249 47.753C15.7348 47.3051 17.6568 46.2615 19.1834 44.735C20.9238 42.9946 22.0164 40.785 22.3432 38.3448C22.6104 36.3498 22.3287 34.2857 21.5486 32.4292L25.9949 27.9829L35.8152 37.8033L34.7581 43.0887L44.5773 47.9982L47.9983 44.5772L43.0888 34.758L37.8033 35.8152ZM3.71238 5.9644L5.9644 3.71238L19.5973 13.937L13.937 19.5973L3.71238 5.9644ZM18.6146 32.8022C20.397 36.1191 19.8266 40.1155 17.1952 42.7469C15.4705 44.4718 13.1494 45.3238 10.785 45.181L14.7451 41.2208L13.4195 34.5939L6.79261 33.2683L2.83243 37.2284C2.68941 34.8638 3.54162 32.543 5.26646 30.8182C7.89795 28.1868 11.8945 27.6167 15.2112 29.3988L16.1317 29.8935L29.8935 16.1317L29.3988 15.2112C27.6164 11.8943 28.1868 7.89786 30.8182 5.26646C32.5429 3.54171 34.8638 2.68951 37.2284 2.83243L33.2683 6.79261L34.5939 13.4195L41.2208 14.7451L45.181 10.785C45.324 13.1496 44.4718 15.4704 42.7469 17.1952C40.1155 19.8267 36.1191 20.3968 32.8022 18.6146L31.8817 18.1199L18.1199 31.8817L18.6146 32.8022ZM44.0221 44.5773L37.9363 41.5344L38.536 38.5361L41.5343 37.9364L44.5772 44.0222L44.0221 44.5773Z" fill="#FF595A"/>
<path fill-rule="evenodd" clip-rule="evenodd" d="M27.9829 25.9948L32.4292 21.5485C34.2858 22.3286 36.35 22.6104 38.3448 22.3432C40.7849 22.0164 42.9946 20.9237 44.735 19.1833C46.2615 17.6568 47.3051 15.7347 47.753 13.6248C48.1864 11.5836 48.0474 9.46056 47.351 7.48511L46.6091 5.38052L40.2967 11.6929L36.9832 11.0302L36.3205 7.7167L42.6329 1.40431L40.5283 0.662419C38.5528 -0.0340207 36.4301 -0.173196 34.3886 0.260357C32.2787 0.708249 30.3567 1.75192 28.8301 3.27836C27.0897 5.01875 25.9971 7.22841 25.6702 9.66862C25.403 11.6636 25.6848 13.7277 26.4649 15.5842L22.0186 20.0305L20.0306 22.0186L15.5843 26.4649C13.7277 25.6847 11.6634 25.4029 9.66872 25.6702C7.2286 25.997 5.01894 27.0897 3.27845 28.8301C1.75202 30.3566 0.708343 32.2787 0.26045 34.3886C-0.172915 36.4298 -0.033927 38.5528 0.662513 40.5283L1.40441 42.6329L7.71679 36.3205L11.0303 36.9832L11.693 40.2967L5.38061 46.6091L7.48521 47.351C8.7092 47.7825 9.98962 48 11.2723 48C12.0598 48 12.8482 47.918 13.6249 47.753C15.7348 47.3051 17.6568 46.2615 19.1834 44.735C20.9238 42.9946 22.0164 40.785 22.3432 38.3448C22.6104 36.3498 22.3287 34.2857 21.5486 32.4292L25.9949 27.9829L27.9829 25.9948ZM18.6146 32.8022C20.397 36.1191 19.8266 40.1155 17.1952 42.7469C15.4705 44.4718 13.1494 45.3238 10.785 45.181L14.7451 41.2208L13.4195 34.5939L6.79261 33.2683L2.83243 37.2284C2.68941 34.8638 3.54162 32.543 5.26646 30.8182C7.89795 28.1868 11.8945 27.6167 15.2112 29.3988L16.1317 29.8935L29.8935 16.1317L29.3988 15.2112C27.6164 11.8943 28.1868 7.89786 30.8182 5.26646C32.5429 3.54171 34.8638 2.68951 37.2284 2.83243L33.2683 6.79261L34.5939 13.4195L41.2208 14.7451L45.181 10.785C45.324 13.1496 44.4718 15.4704 42.7469 17.1952C40.1155 19.8267 36.1191 20.3968 32.8022 18.6146L31.8817 18.1199L18.1199 31.8817L18.6146 32.8022Z" fill="#FF595A"/>
</g>
<defs>
<clipPath id="clip0_274_1213">
<rect width="48" height="48" fill="white"/>
</clipPath>
</defs>
</svg>
