<svg width="48" height="48" viewBox="0 0 48 48" fill="none" xmlns="http://www.w3.org/2000/svg">
<g clip-path="url(#clip0_274_1250)">
<path opacity="0.4" d="M2.82353 32.4707H0V48.0001H15.5294V45.1766H2.82353V32.4707Z" fill="#FF595A"/>
<path opacity="0.4" d="M2.82353 2.82353H15.5294V0H0V15.5294H2.82353V2.82353Z" fill="#FF595A"/>
<path opacity="0.4" d="M32.4707 0V2.82353H45.1766V15.5294H48.0001V0H32.4707Z" fill="#FF595A"/>
<path opacity="0.4" d="M45.1766 45.1766H32.4707V48.0001H48.0001V32.4707H45.1766V45.1766Z" fill="#FF595A"/>
<path d="M9.7635 34.4477L12.3508 33.3171C11.6497 31.7125 11.2942 30.0027 11.2942 28.2354H8.4707C8.4707 30.3942 8.90562 32.4844 9.7635 34.4477Z" fill="#FF595A"/>
<path d="M13.8345 35.8591L11.5771 37.5552C14.4333 41.3568 18.9597 43.7646 23.9999 43.7646V40.9411C19.9662 40.9411 16.261 39.0888 13.8345 35.8591Z" fill="#FF595A"/>
<path d="M37.4507 36.0011L35.0067 34.5872C33.4251 37.3211 30.8625 39.4017 27.812 40.3598L28.6581 43.0535C32.408 41.8756 35.5292 39.3227 37.4507 36.0011Z" fill="#FF595A"/>
<path d="M36.7058 28.2352C36.7058 29.0913 36.6203 29.9468 36.4517 30.7781L39.2187 31.3395C39.4247 30.3239 39.5293 29.2794 39.5293 28.2352V22.5881H36.7058V28.2352Z" fill="#FF595A"/>
<path d="M37.451 11.999L35.0068 13.4128C36.1184 15.3343 36.7058 17.5307 36.7058 19.7648H39.5294C39.5294 17.0349 38.8106 14.3495 37.451 11.999Z" fill="#FF595A"/>
<path d="M32.894 10.6909L34.8707 8.67469C31.9232 5.78462 28.0165 4.23535 24 4.23535V7.05888C27.2602 7.05888 30.4611 8.30575 32.894 10.6909Z" fill="#FF595A"/>
<path d="M10.0244 12.9868L12.5641 14.2206C14.1291 10.9997 16.945 8.659 20.188 7.64027L19.3419 4.94653C15.3364 6.2047 11.9193 9.08677 10.0244 12.9868Z" fill="#FF595A"/>
<path d="M11.2942 19.7646C11.2942 18.9083 11.3798 18.053 11.5484 17.2219L8.78139 16.6602C8.57517 17.6758 8.4707 18.7201 8.4707 19.7646V25.4117H11.2942V19.7646Z" fill="#FF595A"/>
<path d="M14.1177 22.5881V28.2352C14.1177 31.752 16.0105 35.0317 19.0573 36.7943L20.4713 34.3503C18.2939 33.0906 16.9412 30.7475 16.9412 28.2352V22.5881H14.1177Z" fill="#FF595A"/>
<path d="M33.8824 28.2354H31.0588C31.0588 32.1276 27.8922 35.2942 24 35.2942V38.1177C29.4491 38.1177 33.8824 33.6845 33.8824 28.2354Z" fill="#FF595A"/>
<path d="M33.8824 25.4117V19.7646C33.8824 16.2478 31.9896 12.9681 28.9427 11.2056L27.5288 13.6495C29.7062 14.9092 31.0589 17.2523 31.0589 19.7646V25.4117H33.8824Z" fill="#FF595A"/>
<path d="M14.1177 19.7647H16.9412C16.9412 15.8724 20.1078 12.7059 24 12.7059V9.88232C18.5508 9.88232 14.1177 14.3155 14.1177 19.7647Z" fill="#FF595A"/>
<path d="M28.2353 19.7646C28.2353 17.4292 26.3354 15.5293 24 15.5293V18.3528C24.7785 18.3528 25.4118 18.9861 25.4118 19.7646V21.1764H28.2353V19.7646Z" fill="#FF595A"/>
<path d="M19.7646 19.7646H22.5882V25.4117H19.7646V19.7646Z" fill="#FF595A"/>
<path d="M23.9999 32.4706C26.3354 32.4706 28.2352 30.5707 28.2352 28.2353V24H25.4117V28.2353C25.4117 29.0138 24.7785 29.6471 23.9999 29.6471C23.2215 29.6471 22.5882 29.0138 22.5882 28.2353H19.7646C19.7646 30.5707 21.6645 32.4706 23.9999 32.4706Z" fill="#FF595A"/>
</g>
<defs>
<clipPath id="clip0_274_1250">
<rect width="48" height="48" fill="white"/>
</clipPath>
</defs>
</svg>
