<svg width="48" height="48" viewBox="0 0 48 48" fill="none" xmlns="http://www.w3.org/2000/svg">
<g clip-path="url(#clip0_269_1202)">
<path opacity="0.4" d="M39.5279 42.3633L39.5273 12.9733H41.3342L42.6482 10.0805L36.1481 2.64038H34.4469L27.9469 10.0807L29.2609 12.9734H31.0663V42.3633H28.2306V19.7695H19.7696V42.3633H16.9337V28.2422H8.47275V42.3633H5.63681V0H2.82431V42.3633H0V45.1758H2.82422V48H5.63672V45.1758H48V42.3633H39.5279ZM14.1211 42.3633H11.2852V31.0547H14.1211V42.3633ZM25.418 42.3633H22.582V22.582H25.418V42.3633ZM33.8789 42.3633L33.8788 10.1609H31.6114L35.2975 5.94159L38.9837 10.1608H36.7147L36.7148 42.3633H33.8789Z" fill="#FF595A"/>
<path fill-rule="evenodd" clip-rule="evenodd" d="M39.5273 12.9733L39.5279 42.3633H36.7148L36.7147 10.1608H38.9837L35.2975 5.94159L31.6114 10.1609H33.8788L33.8789 42.3633H31.0663V12.9734H29.2609L27.9469 10.0807L34.4469 2.64038H36.1481L42.6482 10.0805L41.3342 12.9733H39.5273Z" fill="#FF595A"/>
</g>
<defs>
<clipPath id="clip0_269_1202">
<rect width="48" height="48" fill="white"/>
</clipPath>
</defs>
</svg>
