<svg width="32" height="32" viewBox="0 0 32 32" fill="none" xmlns="http://www.w3.org/2000/svg">
<path fill-rule="evenodd" clip-rule="evenodd" d="M2.27137 0C1.01693 0 0 1.01693 0 2.27137V29.7286C0 30.9831 1.01693 32 2.27138 32H29.7287C30.9832 32 32.0001 30.9831 32.0001 29.7286V2.27137C32.0001 1.01693 30.9832 0 29.7287 0H2.27137ZM7.18255 9.93764C8.71569 9.93764 9.95855 8.69478 9.95855 7.16164C9.95855 5.6285 8.71569 4.38564 7.18255 4.38564C5.64941 4.38564 4.40655 5.6285 4.40655 7.16164C4.40655 8.69478 5.64941 9.93764 7.18255 9.93764ZM12.5009 11.9892H17.1016V14.0968C17.1016 14.0968 18.3501 11.5999 21.747 11.5999C24.7772 11.5999 27.2874 13.0926 27.2874 17.6426V27.2373H22.5197V18.8052C22.5197 16.1212 21.0867 15.8259 19.9948 15.8259C17.7287 15.8259 17.3407 17.7806 17.3407 19.1553V27.2373H12.5009V11.9892ZM9.60246 11.9892H4.76264V27.2373H9.60246V11.9892Z" fill="white"/>
</svg>
