<svg width="196" height="29" viewBox="0 0 196 29" fill="none" xmlns="http://www.w3.org/2000/svg">
<path d="M39.3579 22.5C38.7513 22.5 38.1965 22.3521 37.6935 22.0562C37.2053 21.7603 36.8133 21.3682 36.5174 20.88C36.2215 20.377 36.0736 19.8222 36.0736 19.2157V9.80653C36.0736 9.19996 36.2215 8.65257 36.5174 8.16436C36.8133 7.66136 37.2053 7.26192 37.6935 6.96603C38.1965 6.67014 38.7513 6.5222 39.3579 6.5222H48.767C49.2996 6.5222 49.7878 6.64056 50.2317 6.87726C50.6903 7.11397 51.0823 7.43945 51.4078 7.85369C51.7333 8.25313 51.9552 8.70435 52.0735 9.20736V12.181H48.5895V9.98406H40.2455C40.0384 9.98406 39.8609 10.058 39.7129 10.206C39.5798 10.3391 39.5132 10.5093 39.5132 10.7164V18.3058C39.5132 18.5129 39.5798 18.6905 39.7129 18.8384C39.8609 18.9716 40.0384 19.0381 40.2455 19.0381H48.5895V16.8412H52.007V19.7926C51.9182 20.2957 51.7185 20.7543 51.4078 21.1685C51.0971 21.5828 50.7125 21.9082 50.2539 22.1449C49.7952 22.3816 49.2996 22.5 48.767 22.5H39.3579Z" fill="white"/>
<path d="M54.2986 22.5V19.0381H66.7923V16.242H57.5829C56.9911 16.242 56.4437 16.0941 55.9407 15.7982C55.4377 15.5023 55.0383 15.1103 54.7424 14.6221C54.4465 14.1191 54.2986 13.5643 54.2986 12.9577V6.5222H57.7382V12.7802H66.7923V6.5222H70.2764V19.2157C70.2764 19.8074 70.1284 20.3548 69.8325 20.8578C69.5367 21.3608 69.1372 21.7603 68.6342 22.0562C68.146 22.3521 67.5986 22.5 66.992 22.5H54.2986Z" fill="white"/>
<path d="M72.7667 22.5V6.5222H84.8388C85.4305 6.5222 85.9705 6.67014 86.4587 6.96603C86.9617 7.26192 87.3612 7.66136 87.6571 8.16436C87.9677 8.65257 88.1231 9.19996 88.1231 9.80653V12.8024C88.1231 12.9947 88.1083 13.1796 88.0787 13.3571C88.0639 13.5199 88.0269 13.6752 87.9677 13.8232C88.1897 14.1043 88.3746 14.4297 88.5225 14.7996C88.6705 15.1694 88.7444 15.5393 88.7444 15.9092V19.2157C88.7444 19.8074 88.5891 20.3548 88.2784 20.8578C87.9825 21.3608 87.5831 21.7603 87.0801 22.0562C86.5919 22.3521 86.0445 22.5 85.4379 22.5H72.7667ZM76.2063 19.0381H85.2604V16.1089H76.2063V19.0381ZM76.2063 12.647H84.639V9.98406H76.2063V12.647Z" fill="white"/>
<path d="M91.2084 22.5V6.5222H105.966V9.98406H94.6924V12.7802H103.769V16.242H94.6924V19.0381H105.966V22.5H91.2084Z" fill="white"/>
<path d="M108.11 22.5V6.50001L120.803 6.5222C121.41 6.5222 121.957 6.67754 122.446 6.98822C122.949 7.28411 123.348 7.68355 123.644 8.18656C123.94 8.68956 124.088 9.23695 124.088 9.82872V13.9563C124.088 14.1338 124.065 14.304 124.021 14.4667C123.992 14.6147 123.94 14.7552 123.866 14.8884C123.807 15.0067 123.725 15.1177 123.622 15.2212C123.533 15.3248 123.437 15.4209 123.333 15.5097C123.452 15.5985 123.555 15.6946 123.644 15.7982C123.733 15.9018 123.807 16.0201 123.866 16.1533C123.94 16.2716 123.992 16.4122 124.021 16.5749C124.065 16.7228 124.088 16.8856 124.088 17.0631V22.5H120.604V17.2406H111.55V22.5H108.11ZM111.55 13.7788H120.604V9.98406H111.55V13.7788Z" fill="white"/>
<path d="M126.555 22.5V19.2823H139.182C139.226 19.2823 139.256 19.2749 139.271 19.2601C139.3 19.2305 139.315 19.1935 139.315 19.1491V16.242C139.315 16.2124 139.3 16.1903 139.271 16.1755C139.256 16.1459 139.226 16.1311 139.182 16.1311H129.751C129.159 16.1311 128.619 15.9905 128.131 15.7094C127.657 15.4136 127.273 15.0215 126.977 14.5333C126.696 14.0451 126.555 13.5125 126.555 12.9355V9.71777C126.555 9.126 126.696 8.59341 126.977 8.11999C127.273 7.63178 127.657 7.24713 128.131 6.96604C128.619 6.67016 129.159 6.52221 129.751 6.52221H142.533V9.73996H129.906C129.862 9.73996 129.825 9.75476 129.795 9.78435C129.78 9.79914 129.773 9.82873 129.773 9.87311V12.7802C129.773 12.8098 129.78 12.8394 129.795 12.8689C129.825 12.8837 129.862 12.8911 129.906 12.8911H139.337C139.929 12.8911 140.462 13.0391 140.935 13.335C141.423 13.6161 141.808 14.0007 142.089 14.4889C142.385 14.9771 142.533 15.5097 142.533 16.0867V19.3044C142.533 19.8962 142.385 20.4362 142.089 20.9244C141.808 21.3978 141.423 21.7825 140.935 22.0784C140.462 22.3595 139.929 22.5 139.337 22.5H126.555Z" stroke="white"/>
<path d="M150.378 22.5V9.73996H143.987V6.52221H159.965V9.73996H153.596V22.5H150.378Z" stroke="white"/>
<path d="M161.669 22.5V6.52221H176.404V9.73996H164.909V12.8911H174.162V16.1311H164.909V19.2823H176.404V22.5H161.669Z" stroke="white"/>
<path d="M178.615 22.5V6.5444H191.375C191.966 6.5444 192.499 6.69235 192.972 6.98823C193.461 7.26932 193.853 7.65397 194.149 8.14218C194.444 8.63039 194.592 9.16299 194.592 9.73996V13.9563C194.592 14.5333 194.444 15.0659 194.149 15.5541C193.853 16.0275 193.461 16.4122 192.972 16.7081C192.499 16.9891 191.966 17.1297 191.375 17.1297L181.81 17.1519V22.5H178.615ZM181.943 13.9119H191.219C191.264 13.9119 191.293 13.9045 191.308 13.8898C191.338 13.8602 191.352 13.8306 191.352 13.801V9.87311C191.352 9.82873 191.338 9.79914 191.308 9.78435C191.293 9.75476 191.264 9.73996 191.219 9.73996H181.943C181.899 9.73996 181.862 9.75476 181.832 9.78435C181.818 9.79914 181.81 9.82873 181.81 9.87311V13.801C181.81 13.8306 181.818 13.8602 181.832 13.8898C181.862 13.9045 181.899 13.9119 181.943 13.9119Z" stroke="white"/>
<path d="M13.4074 13.4231L9.02242 13.4231C8.86195 13.4231 8.76683 13.2436 8.85691 13.1108L17.3518 0.587724C17.389 0.532856 17.451 0.499999 17.5173 0.499999L21.2014 0.499998C21.2677 0.499998 21.3297 0.532855 21.3669 0.587724L29.8618 13.1108C29.9519 13.2436 29.8568 13.4231 29.6963 13.4231L25.3114 13.4231C25.244 13.4231 25.1813 13.3892 25.1443 13.333L19.5265 4.79248C19.4474 4.67236 19.2713 4.67236 19.1923 4.79248L13.5745 13.333C13.5375 13.3892 13.4747 13.4231 13.4074 13.4231Z" stroke="#FF595A"/>
<path d="M16.7397 15.5769L21.1247 15.5769C21.2851 15.5769 21.3803 15.7564 21.2902 15.8892L12.7953 28.4123C12.7581 28.4672 12.6961 28.5 12.6298 28.5L8.94567 28.5C8.87936 28.5 8.81737 28.4672 8.78015 28.4123L0.285255 15.8892C0.195173 15.7564 0.2903 15.5769 0.450769 15.5769L4.83573 15.5769C4.90303 15.5769 4.96583 15.6108 5.00282 15.667L10.6206 24.2075C10.6996 24.3277 10.8758 24.3277 10.9548 24.2075L16.5726 15.667C16.6096 15.6108 16.6724 15.5769 16.7397 15.5769Z" fill="#FF595A" stroke="#FF595A" stroke-width="0.5"/>
</svg>
