<svg width="60" height="60" viewBox="0 0 60 60" fill="none" xmlns="http://www.w3.org/2000/svg">
<g clip-path="url(#clip0_318_1172)">
<path opacity="0.2" d="M57.1951 10.505L52.6151 7.58925C52.4536 7.48077 52.2633 7.42323 52.0688 7.42409C51.7836 7.42944 51.5111 7.54298 51.3065 7.74171C51.1042 7.93003 50.9834 8.18985 50.9698 8.46588L47.6221 40.863C47.5737 41.2008 47.4017 41.5086 47.1393 41.7269L30.6041 52.2973H30.5723C30.4624 52.3798 30.3286 52.4243 30.1912 52.4243C30.0537 52.4243 29.92 52.3798 29.81 52.2973L13.8021 41.7396C13.6712 41.6559 13.5599 41.5451 13.4755 41.4147C13.3911 41.2843 13.3357 41.1374 13.3129 40.9837L9.93981 8.36425C9.92187 8.10084 9.80276 7.85458 9.6074 7.67698C9.41205 7.49939 9.15558 7.40422 8.89167 7.41139C8.68418 7.40945 8.48078 7.46914 8.30725 7.5829L3.63825 10.3716C3.43264 10.4814 3.26324 10.6485 3.15051 10.8525C3.03779 11.0565 2.98656 11.2889 3.00301 11.5214V11.5849L6.5667 44.0837C6.60049 44.5191 6.73233 44.9413 6.95234 45.3186C7.17235 45.696 7.47484 46.0186 7.83717 46.2625L28.8 59.774C29.2199 60.0381 29.7019 60.1871 30.1975 60.206C30.6959 60.2247 31.1861 60.0747 31.5887 59.7804L52.8247 46.2752C53.1833 46.0245 53.4828 45.6984 53.7022 45.3199C53.9216 44.9413 54.0558 44.5194 54.0952 44.0837L57.7669 11.6865V11.6421C57.7832 11.4113 57.7318 11.1807 57.619 10.9787C57.5061 10.7767 57.3367 10.6121 57.1316 10.505" fill="#FF595A"/>
<path opacity="0.2" d="M11.8963 6.41403C11.9166 6.45861 11.947 6.49779 11.9852 6.52838C12.1052 6.68915 12.2566 6.82386 12.4302 6.92433C12.6039 7.02479 12.7961 7.08891 12.9953 7.1128H47.7936C48.0217 7.09571 48.2421 7.02237 48.435 6.89933C48.6279 6.77629 48.7873 6.60737 48.8989 6.40768L51.3192 2.11347C51.4375 1.94077 51.5075 1.7396 51.5221 1.53076C51.5366 1.32192 51.495 1.11299 51.4018 0.925579C51.296 0.706631 51.1297 0.522616 50.9225 0.395379C50.7153 0.268141 50.476 0.203025 50.2329 0.207761H10.5687C10.2317 0.207761 9.90857 0.341614 9.67031 0.579874C9.43204 0.818135 9.29819 1.14129 9.29819 1.47824C9.28604 1.70771 9.35835 1.93369 9.50147 2.11347L11.8963 6.41403Z" fill="#FF595A"/>
<path d="M35.4827 15.3455C35.3493 14.8119 34.4092 14.8119 34.009 15.3455L22.2253 35.8319C22.1543 35.9709 22.1197 36.1256 22.1248 36.2816C22.1299 36.4375 22.1745 36.5897 22.2545 36.7236C22.3346 36.8576 22.4473 36.9691 22.5822 37.0476C22.7171 37.126 22.8697 37.169 23.0257 37.1723H28.9207C29.2083 37.1659 29.4873 37.0729 29.7211 36.9055L38.5763 21.5073C38.6422 21.3594 38.6762 21.1992 38.6762 21.0372C38.6762 20.8753 38.6422 20.7151 38.5763 20.5672L35.4827 15.3455Z" fill="#FF595A"/>
</g>
<defs>
<clipPath id="clip0_318_1172">
<rect width="60" height="60" fill="white"/>
</clipPath>
</defs>
</svg>
