<svg width="60" height="60" viewBox="0 0 60 60" fill="none" xmlns="http://www.w3.org/2000/svg">
<g clip-path="url(#clip0_318_1227)">
<path opacity="0.2" d="M55.626 36.1006C55.377 36.1088 55.137 36.1957 54.9405 36.349L29.7047 50.5664C29.5977 50.6465 29.4703 50.6947 29.3371 50.7055C29.2138 50.6949 29.0963 50.6483 28.9993 50.5714L28.9447 50.5416L16.4162 44.5158C16.2205 44.3701 15.9845 44.2886 15.7406 44.2823C15.5966 44.2929 15.4562 44.3322 15.3276 44.3981C15.1991 44.4639 15.0852 44.5549 14.9925 44.6656C14.8998 44.7764 14.8303 44.9046 14.7882 45.0427C14.746 45.1808 14.732 45.326 14.7471 45.4696V51.3116C14.7253 51.7249 14.812 52.1367 14.9985 52.5061C15.185 52.8756 15.4648 53.1899 15.8101 53.4179H15.8499L27.7971 59.6126C28.186 59.8574 28.6343 59.9913 29.0937 60C29.5264 59.9983 29.9474 59.8592 30.2959 59.6026L55.5565 45.1964C55.8785 44.9458 56.1409 44.6269 56.3247 44.2627C56.5085 43.8985 56.6092 43.498 56.6196 43.0901V37.2879C56.6346 37.1442 56.6206 36.9991 56.5784 36.861C56.5363 36.7229 56.4668 36.5946 56.3741 36.4839C56.2815 36.3732 56.1675 36.2822 56.039 36.2163C55.9105 36.1505 55.77 36.1111 55.626 36.1006Z" fill="#FF595A"/>
<path opacity="0.2" d="M24.3247 9.82657L19.0043 7.21854C18.5926 6.96579 18.1212 6.82693 17.6382 6.81616C17.2937 6.81809 16.954 6.89791 16.6447 7.04964L4.30498 13.5076C3.89835 13.683 3.55544 13.9791 3.32265 14.3559C3.08985 14.7326 2.97843 15.1718 3.00345 15.6139L3.11771 45.261C3.16754 45.6638 3.30555 46.0507 3.52192 46.3942C3.73829 46.7376 4.0277 47.0292 4.36956 47.248L9.33723 50.0945C9.5499 50.2296 9.79569 50.3035 10.0476 50.3081C10.1815 50.3109 10.3144 50.2854 10.4377 50.2332C10.561 50.1809 10.6718 50.1032 10.763 50.0051C10.8629 49.8905 10.9371 49.7558 10.9808 49.6102C11.0245 49.4646 11.0366 49.3113 11.0163 49.1606L10.9517 19.4042C10.9269 19.2723 10.9524 19.1359 11.0232 19.0218C11.094 18.9078 11.205 18.8245 11.3342 18.7882L24.285 11.7689C24.4679 11.7075 24.6303 11.5965 24.754 11.4483C24.8776 11.3001 24.9577 11.1204 24.9854 10.9294C24.9881 10.7044 24.9276 10.4831 24.8108 10.2908C24.694 10.0985 24.5256 9.94281 24.3247 9.84147" fill="#FF595A"/>
<path opacity="0.2" d="M55.4868 13.7311L29.645 0.189253C29.3497 0.0581701 29.0291 -0.00627957 28.7061 0.000482003C28.2209 -0.00483355 27.7423 0.113106 27.3151 0.343251L21.8507 3.17482C21.6581 3.277 21.4973 3.43025 21.386 3.61778C21.2747 3.8053 21.2172 4.01986 21.2198 4.2379C21.2358 4.42887 21.3067 4.61115 21.4239 4.76275C21.5411 4.91435 21.6997 5.02881 21.8805 5.09234L48.4228 19.0018C48.5497 19.042 48.6573 19.1276 48.7251 19.2421C48.7929 19.3567 48.8161 19.4922 48.7904 19.6228L48.7059 33.9247C48.682 34.0809 48.6913 34.2404 48.7332 34.3928C48.7752 34.5452 48.8488 34.687 48.9493 34.8089C49.0408 34.908 49.1524 34.9862 49.2767 35.0385C49.4009 35.0908 49.5349 35.1158 49.6697 35.112C49.9188 35.1085 50.1624 35.0381 50.3751 34.9083L55.3874 31.9277C55.76 31.7308 56.0737 31.4385 56.2962 31.0806C56.5188 30.7228 56.6423 30.3122 56.6542 29.891L56.7685 15.8623C56.7996 15.4184 56.6933 14.9757 56.464 14.5944C56.2346 14.2131 55.8935 13.9117 55.4868 13.7311Z" fill="#FF595A"/>
<path d="M32.263 24.1135L37.1015 26.9352C37.343 27.0702 37.5398 27.2728 37.6678 27.5182C37.7957 27.7635 37.8493 28.0408 37.8218 28.3162L37.7423 36.945L41.1551 38.9321C41.2416 38.9886 41.3108 39.0678 41.3552 39.1611C41.3995 39.2543 41.4173 39.358 41.4065 39.4607C41.3957 39.5634 41.3568 39.6612 41.2941 39.7432C41.2313 39.8252 41.1471 39.8884 41.0508 39.9256L31.6967 45.3304C31.6005 45.3636 31.4983 45.3755 31.3971 45.3655C31.2958 45.3554 31.198 45.3236 31.1102 45.2721C31.0224 45.2207 30.9468 45.1509 30.8886 45.0675C30.8303 44.9841 30.7908 44.8891 30.7727 44.789L30.9168 24.9481C30.916 24.7892 30.956 24.6327 31.0329 24.4937C31.1099 24.3546 31.2212 24.2377 31.3562 24.1539C31.4913 24.0702 31.6456 24.0225 31.8044 24.0154C31.9631 24.0084 32.121 24.0421 32.263 24.1135Z" fill="#FF595A"/>
<path d="M18.6814 20.5169L28.0007 15.1965C28.0969 15.1625 28.1993 15.1499 28.3008 15.1595C28.4023 15.1692 28.5005 15.2009 28.5885 15.2525C28.6765 15.3041 28.7522 15.3742 28.8103 15.4581C28.8683 15.5419 28.9074 15.6375 28.9247 15.738L28.7508 35.5789C28.7516 35.7378 28.7116 35.8942 28.6347 36.0333C28.5577 36.1723 28.4464 36.2893 28.3113 36.373C28.1763 36.4568 28.022 36.5044 27.8632 36.5115C27.7045 36.5186 27.5466 36.4848 27.4046 36.4134L22.576 33.5819C22.3687 33.4272 22.2015 33.2253 22.0883 32.9928C21.975 32.7603 21.9191 32.5041 21.9252 32.2456L21.96 23.3932C21.8756 23.5323 21.806 23.4925 21.7315 23.4528L18.6068 21.6197C18.5145 21.5568 18.4403 21.4708 18.3914 21.3704C18.3426 21.2699 18.3208 21.1584 18.3284 21.047C18.3359 20.9355 18.3724 20.828 18.4343 20.735C18.4963 20.642 18.5814 20.5668 18.6814 20.5169Z" fill="#FF595A"/>
</g>
<defs>
<clipPath id="clip0_318_1227">
<rect width="60" height="60" fill="white"/>
</clipPath>
</defs>
</svg>
