<svg width="200" height="347" viewBox="0 0 200 347" fill="none" xmlns="http://www.w3.org/2000/svg">
<path d="M0 317.1C0 325.287 10.8424 328.188 14.9311 321.094L193.087 11.9949C196.16 6.66159 192.311 0 186.155 0H8C3.58173 0 0 3.58173 0 8L0 317.1Z" fill="#221C35"/>
<g clip-path="url(#clip0_192_1366)">
<path d="M54.6465 66.5142L54.6153 72.4628C54.6149 72.7246 54.69 72.9818 54.833 73.209C54.976 73.4362 55.1819 73.6254 55.4304 73.7577L78.513 85.8754C78.6627 85.9547 78.8326 85.9968 79.0058 85.9975C79.179 85.9983 79.3494 85.9578 79.5 85.8799C79.6505 85.802 79.776 85.6896 79.8637 85.5539C79.9514 85.4181 79.9984 85.2638 80 85.1064L80 79.3105C79.9986 79.0492 79.9222 78.7927 79.7781 78.5666C79.634 78.3404 79.4274 78.1524 79.1787 78.0213L64.1221 70.1049C63.9721 70.0274 63.8473 69.9151 63.7605 69.7795C63.6737 69.644 63.6279 69.4899 63.6279 69.333C63.6279 69.1762 63.6737 69.0221 63.7605 68.8865C63.8473 68.7509 63.9721 68.6387 64.1221 68.5612L79.1787 60.6448C79.4176 60.5205 79.6181 60.3433 79.7616 60.1298C79.9052 59.9163 79.9872 59.6734 80 59.4234L80 53.8989C79.9994 53.7456 79.9546 53.5951 79.87 53.4624C79.7854 53.3298 79.664 53.2196 79.5179 53.1429C79.3718 53.0662 79.2062 53.0257 79.0375 53.0254C78.8688 53.0251 78.7029 53.065 78.5565 53.1412L55.4677 65.2363C55.2183 65.3638 55.0107 65.5495 54.8664 65.7741C54.7221 65.9987 54.6461 66.2541 54.6465 66.5142Z" fill="#FF595A"/>
</g>
<defs>
<clipPath id="clip0_192_1366">
<rect width="33" height="50.7692" fill="white" transform="translate(29.2307 86) rotate(-90)"/>
</clipPath>
</defs>
</svg>
