<svg width="60" height="60" viewBox="0 0 60 60" fill="none" xmlns="http://www.w3.org/2000/svg">
<path opacity="0.3" d="M9.33927 35.8302L23.7099 12.7061C23.7776 12.5541 23.887 12.4244 24.0254 12.332C24.1637 12.2395 24.3255 12.1882 24.4918 12.1839H38.4701C38.9924 12.1839 39.2549 11.7944 38.9924 11.2693L35.605 5.78473C35.3341 5.26252 34.5522 5 34.0299 5H20.9662C20.444 5 19.6593 5.26252 19.3968 5.78473L5.28296 28.6491C5.12239 28.9266 5.03784 29.2416 5.03784 29.5622C5.03784 29.8829 5.12239 30.1979 5.28296 30.4754L8.2892 35.8386C8.34344 35.9287 8.42003 36.0031 8.51152 36.0548C8.60302 36.1065 8.70632 36.1336 8.81141 36.1336C8.9165 36.1336 9.0198 36.1065 9.11129 36.0548C9.20279 36.0031 9.27938 35.9287 9.33362 35.8386" fill="#846CE6"/>
<path d="M25.4036 24.7256L36.6382 43.0143C36.7988 43.2891 37.0277 43.5177 37.3027 43.678C37.5777 43.8382 37.8894 43.9246 38.2077 43.9289H43.5709C43.7353 43.9215 43.8951 43.8719 44.0348 43.7848C44.1744 43.6977 44.2892 43.576 44.3681 43.4316C44.447 43.2871 44.4873 43.1248 44.4851 42.9602C44.4829 42.7956 44.4383 42.6344 44.3556 42.4921L29.7168 18.3264C29.6259 18.2044 29.5078 18.1052 29.3718 18.037C29.2358 17.9687 29.0857 17.9331 28.9335 17.9331C28.7813 17.9331 28.6312 17.9687 28.4952 18.037C28.3592 18.1052 28.2411 18.2044 28.1502 18.3264L25.4036 22.8965C25.2124 23.1631 25.1096 23.4829 25.1096 23.811C25.1096 24.1391 25.2124 24.459 25.4036 24.7256Z" fill="#846CE6"/>
<path opacity="0.3" d="M3.19973 38.5738L0.193491 43.6717C0.0659089 43.9597 0 44.2713 0 44.5863C0 44.9013 0.0659089 45.2128 0.193491 45.5009L5.27446 54.3841C5.43266 54.661 5.66102 54.8913 5.93654 55.0518C6.21206 55.2124 6.52502 55.2975 6.84391 55.2987H39.6472C39.9342 55.3055 40.2179 55.2368 40.47 55.0996C40.7222 54.9624 40.9339 54.7614 41.084 54.5168L44.4713 49.1535C44.731 48.6313 44.4713 48.2389 43.9491 48.2389H10.3837C10.2164 48.2354 10.0536 48.1844 9.9142 48.092C9.77478 47.9995 9.66447 47.8694 9.5961 47.7167L4.23286 38.5738C4.17862 38.4838 4.10203 38.4093 4.01053 38.3577C3.91904 38.306 3.81574 38.2788 3.71065 38.2788C3.60556 38.2788 3.50226 38.306 3.41076 38.3577C3.31927 38.4093 3.24268 38.4838 3.18844 38.5738" fill="#846CE6"/>
<path opacity="0.3" d="M46.4388 55.2932H52.4484C52.9706 55.2932 53.7553 55.0335 54.015 54.5113L59.6323 45.4954C60.0247 44.9732 60.1545 44.1913 59.765 43.6691L44.8806 19.2381C44.7098 18.9725 44.4786 18.7512 44.2058 18.5922C43.933 18.4332 43.6264 18.3412 43.3111 18.3235H37.2958C37.1862 18.3163 37.0768 18.34 36.9799 18.3919C36.8831 18.4438 36.8028 18.5218 36.7481 18.6171C36.6934 18.7124 36.6665 18.8211 36.6706 18.9308C36.6746 19.0406 36.7093 19.1471 36.7708 19.2381L51.7935 44.0586C51.9261 44.3951 51.9261 44.7694 51.7935 45.1059L45.9165 54.3786C45.654 54.9037 45.9165 55.2932 46.4388 55.2932Z" fill="#846CE6"/>
<path d="M24.2322 43.9286H33.7675C33.9259 43.9429 34.0852 43.9122 34.2271 43.8402C34.3689 43.7681 34.4876 43.6575 34.5695 43.5211C34.6514 43.3847 34.6932 43.228 34.6902 43.0689C34.6871 42.9098 34.6393 42.7548 34.5522 42.6217L31.6786 37.7891C31.5204 37.5122 31.2921 37.2819 31.0165 37.1213C30.741 36.9608 30.4281 36.8756 30.1092 36.8745H27.8877C27.5692 36.8761 27.2569 36.9615 26.9819 37.122C26.7069 37.2826 26.479 37.5126 26.321 37.7891L23.4475 42.6217C23.3604 42.7548 23.3125 42.9098 23.3095 43.0689C23.3064 43.228 23.3482 43.3847 23.4301 43.5211C23.512 43.6575 23.6307 43.7681 23.7726 43.8402C23.9144 43.9122 24.0737 43.9429 24.2322 43.9286Z" fill="#846CE6"/>
<path d="M21.2259 43.1442L27.6279 32.8242C27.8193 32.5581 27.9222 32.2387 27.9222 31.911C27.9222 31.5833 27.8193 31.2639 27.6279 30.9978L24.7543 26.2923C24.6628 26.1707 24.5443 26.0721 24.4081 26.0042C24.2719 25.9362 24.1218 25.9009 23.9696 25.9009C23.8174 25.9009 23.6673 25.9362 23.5311 26.0042C23.395 26.0721 23.2764 26.1707 23.1849 26.2923L13.3899 42.622C13.303 42.7549 13.2553 42.9096 13.2521 43.0684C13.249 43.2272 13.2905 43.3837 13.3721 43.52C13.4536 43.6563 13.5719 43.7669 13.7133 43.8392C13.8547 43.9115 14.0136 43.9426 14.1718 43.9289H19.6593C20.3113 43.9289 20.9662 43.6692 21.2259 43.1442Z" fill="#846CE6"/>
</svg>
