<svg width="60" height="60" viewBox="0 0 60 60" fill="none" xmlns="http://www.w3.org/2000/svg">
<g clip-path="url(#clip0_437_262)">
<path opacity="0.3" d="M57.1951 10.5051L52.6151 7.58938C52.4536 7.48089 52.2633 7.42336 52.0688 7.42421C51.7836 7.42957 51.5111 7.5431 51.3065 7.74183C51.1042 7.93015 50.9834 8.18998 50.9698 8.46601L47.6221 40.8631C47.5737 41.2009 47.4017 41.5088 47.1393 41.7271L30.6041 52.2974H30.5723C30.4624 52.3799 30.3286 52.4245 30.1912 52.4245C30.0537 52.4245 29.92 52.3799 29.81 52.2974L13.8021 41.7398C13.6712 41.6561 13.5599 41.5453 13.4755 41.4149C13.3911 41.2845 13.3357 41.1375 13.3129 40.9838L9.93981 8.36437C9.92187 8.10096 9.80276 7.8547 9.6074 7.6771C9.41205 7.49951 9.15558 7.40434 8.89167 7.41151C8.68418 7.40957 8.48078 7.46927 8.30725 7.58302L3.63825 10.3717C3.43264 10.4816 3.26324 10.6486 3.15051 10.8526C3.03779 11.0567 2.98656 11.289 3.00301 11.5215V11.585L6.5667 44.0838C6.60049 44.5193 6.73233 44.9414 6.95234 45.3188C7.17235 45.6961 7.47484 46.0188 7.83717 46.2627L28.8 59.7742C29.2199 60.0383 29.7019 60.1872 30.1975 60.2061C30.6959 60.2248 31.1861 60.0748 31.5887 59.7805L52.8247 46.2754C53.1833 46.0246 53.4827 45.6986 53.7022 45.32C53.9216 44.9415 54.0558 44.5196 54.0952 44.0838L57.7669 11.6867V11.6422C57.7832 11.4114 57.7318 11.1808 57.619 10.9788C57.5061 10.7768 57.3367 10.6122 57.1316 10.5051" fill="#846CE6"/>
<path opacity="0.3" d="M11.8963 6.41403C11.9166 6.45861 11.947 6.49779 11.9852 6.52838C12.1052 6.68915 12.2566 6.82386 12.4302 6.92432C12.6039 7.02479 12.7961 7.08891 12.9953 7.1128H47.7936C48.0217 7.09571 48.2421 7.02238 48.435 6.89933C48.6279 6.77629 48.7873 6.60737 48.8989 6.40768L51.3192 2.11347C51.4375 1.94077 51.5075 1.7396 51.522 1.53076C51.5366 1.32192 51.495 1.11299 51.4018 0.925579C51.296 0.706631 51.1297 0.522616 50.9225 0.395379C50.7153 0.268141 50.476 0.203025 50.2329 0.207761H10.5687C10.2317 0.207761 9.90857 0.341614 9.67031 0.579874C9.43204 0.818135 9.29819 1.14129 9.29819 1.47824C9.28604 1.70771 9.35835 1.93369 9.50147 2.11347L11.8963 6.41403Z" fill="#846CE6"/>
<path d="M35.4827 15.3455C35.3493 14.8119 34.4092 14.8119 34.009 15.3455L22.2253 35.8319C22.1543 35.9709 22.1197 36.1256 22.1248 36.2816C22.1299 36.4375 22.1745 36.5897 22.2545 36.7236C22.3346 36.8576 22.4473 36.9691 22.5822 37.0476C22.7171 37.126 22.8697 37.169 23.0257 37.1723H28.9207C29.2083 37.1659 29.4873 37.0729 29.7211 36.9055L38.5763 21.5073C38.6422 21.3594 38.6762 21.1992 38.6762 21.0372C38.6762 20.8753 38.6422 20.7151 38.5763 20.5672L35.4827 15.3455Z" fill="#846CE6"/>
</g>
<defs>
<clipPath id="clip0_437_262">
<rect width="60" height="60" fill="white"/>
</clipPath>
</defs>
</svg>
