<svg width="60" height="60" viewBox="0 0 60 60" fill="none" xmlns="http://www.w3.org/2000/svg">
<path opacity="0.3" d="M42.2386 20.6265H18.2525C18.0852 20.6264 17.9209 20.6703 17.776 20.7539C17.6311 20.8374 17.5108 20.9577 17.4271 21.1025C17.3434 21.2473 17.2993 21.4116 17.2993 21.5789C17.2993 21.7462 17.3433 21.9105 17.4269 22.0553L20.3546 27.1358C20.4951 27.3819 20.6986 27.5863 20.9441 27.728C21.1895 27.8697 21.4682 27.9437 21.7517 27.9423L38.6887 27.9931C38.9708 27.9921 39.2477 27.917 39.4917 27.7755C39.7357 27.634 39.9384 27.4309 40.0795 27.1866L43.0642 22.049C43.1467 21.9048 43.1898 21.7414 43.1892 21.5752C43.1885 21.4091 43.1441 21.246 43.0604 21.1025C42.9767 20.9589 42.8567 20.84 42.7125 20.7575C42.5682 20.6751 42.4048 20.6321 42.2386 20.6328" fill="#846CE6"/>
<path opacity="0.3" d="M11.2352 33.4799H3.61449C3.50663 33.4834 3.40144 33.5143 3.30884 33.5697C3.21625 33.6252 3.13931 33.7033 3.08529 33.7967C3.03127 33.8901 3.00195 33.9958 3.00009 34.1037C2.99824 34.2116 3.02391 34.3182 3.07469 34.4134L4.97986 37.7284C5.07252 37.8889 5.20584 38.0221 5.36639 38.1147C5.52693 38.2072 5.70904 38.2558 5.89435 38.2555H13.9024M14.4676 9.39214C14.2716 9.51437 14.127 9.70411 14.0612 9.92559L13.6484 10.5035H6.4786C6.37074 10.507 6.26555 10.5379 6.17295 10.5933C6.08036 10.6488 6.00342 10.7269 5.9494 10.8203C5.89538 10.9137 5.86606 11.0194 5.8642 11.1273C5.86235 11.2352 5.88802 11.3418 5.9388 11.437L7.84397 14.752C7.93123 14.9242 8.06354 15.0694 8.22682 15.1723C8.39009 15.2752 8.57822 15.3319 8.77116 15.3363H11.0828M13 16.6064L31.6523 16.6508C31.9357 16.6522 32.2144 16.5782 32.4599 16.4365C32.7054 16.2948 32.9088 16.0904 33.0494 15.8443L36.0278 10.7131C36.1096 10.5688 36.1524 10.4058 36.1518 10.24C36.1513 10.0742 36.1075 9.91136 36.0247 9.76768C35.942 9.624 35.8232 9.5044 35.68 9.42071C35.5369 9.33703 35.3744 9.29215 35.2086 9.29053L18.5314 9.29053M18 39.3034H26.502C26.7841 39.3023 27.061 39.2272 27.305 39.0857C27.549 38.9442 27.7517 38.7411 27.8927 38.4968L30.8775 33.3592C30.96 33.215 31.0031 33.0516 31.0025 32.8855C31.0018 32.7193 30.9574 32.5563 30.8737 32.4127C30.79 32.2692 30.67 32.1502 30.5258 32.0677C30.3815 31.9853 30.2181 31.9423 30.0519 31.943H12.3797" fill="#846CE6"/>
<path fill-rule="evenodd" clip-rule="evenodd" d="M57.7849 58.5202L48.5512 43.0629C51.2328 40.9429 53.4334 38.2773 55.0073 35.2427C56.5811 32.2081 57.4923 28.8738 57.6805 25.4605C57.8686 22.0473 57.3295 18.633 56.0987 15.4438C54.868 12.2546 52.9737 9.36329 50.5414 6.96132C48.109 4.55935 45.1941 2.70155 41.9897 1.51096C38.7853 0.320366 35.3646 -0.175849 31.9539 0.0551752C28.5433 0.2862 25.2207 1.23919 22.2061 2.85104C19.1916 4.46288 16.5538 6.6968 14.4676 9.40484C14.2723 9.53077 14.1282 9.72213 14.0612 9.94464L13.6484 10.5225C12.3417 12.4099 11.8157 13.4639 11.0828 15.3363C8.77148 21.1737 8.82615 27.6821 11.2352 33.4799C11.9913 35.5085 12.557 36.5623 13.9024 38.2555C17.0478 42.6564 21.5824 45.8711 26.7763 47.3824C31.9703 48.8937 37.5216 48.6137 42.5372 46.5875L50.2849 59.5617C50.3662 59.6974 50.4817 59.8093 50.62 59.8862C50.7582 59.9631 50.9142 60.0023 51.0724 59.9999L57.0165 59.9173C57.1796 59.9179 57.3399 59.8745 57.4805 59.7917C57.6211 59.7089 57.7368 59.5898 57.8154 59.4469C57.894 59.3039 57.9327 59.1424 57.9273 58.9793C57.922 58.8163 57.8728 58.6577 57.7849 58.5202ZM46.049 38.8334C45.1847 39.5722 44.2584 40.2351 43.2802 40.8148C39.9079 42.8019 36.0102 43.7144 32.1063 43.4307C28.2024 43.1471 24.4775 41.6808 21.4279 39.2271C18.813 37.1588 17.4776 35.7486 15.8076 31.8668C14.7491 29.4408 14.2002 26.8233 14.1947 24.1764C14.1893 21.5457 14.7209 18.9417 15.7567 16.5238L15.7758 16.4794L15.7782 16.4794C17.3881 13.147 18.3566 11.3172 21.3072 9.16352C25.2476 5.88254 30.3299 4.30126 35.4362 4.76752C40.5424 5.23378 45.2543 7.7094 48.5353 11.6498C51.8163 15.5901 53.3976 20.6725 52.9313 25.7787C52.465 30.885 49.9894 35.5969 46.049 38.8779V38.8334Z" fill="#846CE6"/>
</svg>
