<svg width="10" height="13" viewBox="0 0 10 13" fill="none" xmlns="http://www.w3.org/2000/svg">
<path d="M9.98774 7.67525L10 5.33186C10.0002 5.22875 9.9706 5.12741 9.91427 5.03791C9.85794 4.94841 9.7768 4.87389 9.67892 4.82175L0.585784 0.0481046C0.526814 0.0168987 0.459863 0.000312086 0.391626 3.95284e-06C0.32339 -0.00030418 0.256261 0.015677 0.196953 0.0463488C0.137646 0.0770206 0.0882387 0.121308 0.0536747 0.174781C0.0191116 0.228254 0.00060271 0.289037 -1.5345e-08 0.351052L-1.15149e-07 2.63429C0.000516772 2.73724 0.0306462 2.83827 0.0873994 2.92736C0.144153 3.01646 0.225556 3.09051 0.323529 3.14218L6.2549 6.26075C6.31402 6.29128 6.36318 6.3355 6.39737 6.38891C6.43157 6.44232 6.44959 6.50302 6.44959 6.56481C6.44959 6.62661 6.43157 6.6873 6.39737 6.74071C6.36318 6.79412 6.31402 6.83834 6.2549 6.86887L0.323529 9.98745C0.229419 10.0364 0.150432 10.1062 0.0938793 10.1903C0.0373264 10.2744 0.00503685 10.3701 -4.57597e-07 10.4686L-5.52727e-07 12.6449C0.000222604 12.7053 0.0178761 12.7646 0.0511965 12.8169C0.0845179 12.8691 0.132341 12.9125 0.18989 12.9427C0.247439 12.973 0.312701 12.9889 0.379159 12.989C0.445618 12.9891 0.510949 12.9734 0.568627 12.9434L9.66421 8.17867C9.76247 8.12843 9.84423 8.05531 9.90109 7.96683C9.95796 7.87836 9.98786 7.77771 9.98774 7.67525Z" fill="#00C9DB"/>
</svg>
