<svg width="48" height="48" viewBox="0 0 48 48" fill="none" xmlns="http://www.w3.org/2000/svg">
<g clip-path="url(#clip0_89_1027)">
<path d="M24.6601 26.1678H23.3401C22.7905 26.1678 22.3433 25.7206 22.3433 25.1709C22.3433 24.6212 22.7905 24.1741 23.3401 24.1741H24.6836C25.2099 24.1741 25.6379 24.6021 25.6379 25.1284H28.4504C28.4504 23.2986 27.1387 21.77 25.4064 21.4319V20.0029H22.5939V21.4354C20.8494 21.7833 19.5308 23.3259 19.5308 25.171C19.5308 27.2715 21.2396 28.9803 23.3401 28.9803H24.6601C25.2098 28.9803 25.6569 29.4276 25.6569 29.9773C25.6569 30.5269 25.2098 30.9741 24.6601 30.9741H23.3704C22.8199 30.9741 22.372 30.5263 22.372 29.9758H19.5595C19.5595 31.811 20.8637 33.3473 22.594 33.7069V35.1453H25.4065V33.7128C27.1509 33.3649 28.4695 31.8224 28.4695 29.9773C28.4695 27.8767 26.7606 26.1678 24.6601 26.1678Z" fill="#FF595A"/>
<path opacity="0.4" d="M44.4258 17.4887V15.6094H48V7.63931L24 0L0 7.63931V15.6094H3.57422V17.4887L5.64844 20.3132V34.8353L3.57422 37.6598V39.5392H0V48H48V39.5391H44.4258V37.6598L42.3516 34.8353V20.3131L44.4258 17.4887ZM41.6133 16.5669L40.2338 18.4453H36.0084L34.6289 16.5669V15.6094H41.6133V16.5669ZM39.5391 33.8906H36.7031V21.2578H39.5391V33.8906ZM16.1836 39.5391V37.6598L14.1094 34.8353V20.3131L16.1836 17.4887V15.6094H31.8164V17.4887L33.8906 20.3132V34.8352L31.8164 37.6598V39.5391H16.1836ZM8.46094 21.2578H11.2969V33.8906H8.46094V21.2578ZM2.8125 9.69562L24 2.95144L45.1875 9.69562V12.7969H2.8125V9.69562ZM13.3711 15.6094V16.5669L11.9916 18.4453H7.76616L6.38672 16.5669V15.6094H13.3711ZM6.38672 38.5815L7.76616 36.7031H11.9916L13.3711 38.5815V39.5391H6.38672V38.5815ZM45.1875 45.1875H2.8125V42.3516H45.1875V45.1875ZM34.6289 39.5391V38.5815L36.0084 36.7031H40.2338L41.6133 38.5815V39.5391H34.6289Z" fill="#FF595A"/>
<path opacity="0.4" d="M21.1816 6.96094H26.8184V9.77344H21.1816V6.96094Z" fill="#FF595A"/>
</g>
<defs>
<clipPath id="clip0_89_1027">
<rect width="48" height="48" fill="white"/>
</clipPath>
</defs>
</svg>
