<svg width="21" height="20" viewBox="0 0 21 20" fill="none" xmlns="http://www.w3.org/2000/svg">
<path d="M2.42959 4.85917C3.77141 4.85917 4.85917 3.77141 4.85917 2.42959C4.85917 1.08776 3.77141 0 2.42959 0C1.08776 0 0 1.08776 0 2.42959C0 3.77141 1.08776 4.85917 2.42959 4.85917Z" fill="white"/>
<path d="M7.08426 6.65471H11.1109V8.49932C11.1109 8.49932 12.2035 6.31397 15.1765 6.31397C17.8286 6.31397 20.0255 7.62043 20.0255 11.6026V20H15.8528V12.6202C15.8528 10.2711 14.5987 10.0127 13.643 10.0127C11.6597 10.0127 11.3201 11.7234 11.3201 12.9266V20H7.08426V6.65471Z" fill="white"/>
<path d="M0.311656 6.65471H4.54752V20H0.311656V6.65471Z" fill="white"/>
</svg>
