<svg width="722" height="820" viewBox="0 0 722 820" fill="none" xmlns="http://www.w3.org/2000/svg">
<g opacity="0.23">
<path d="M330.265 548.567L330.265 548.562C330.269 545.122 329.327 541.741 327.535 538.767C325.742 535.792 323.161 533.33 320.055 531.637L320.046 531.632L18.3753 363.127L18.3744 363.127C16.6115 362.149 14.6127 361.635 12.5775 361.639C10.5423 361.643 8.54533 362.164 6.78648 363.148C5.02786 364.133 3.56994 365.545 2.55601 367.24C1.54227 368.936 1.0072 370.857 1.00034 372.812L1.00035 449.742C1.16152 453.045 2.1776 456.258 3.95933 459.083C5.74399 461.913 8.23945 464.264 11.2162 465.916L11.2201 465.918L207.94 576.205L207.94 576.204C210.052 577.368 211.813 579.055 213.039 581.098C214.266 583.141 214.914 585.465 214.914 587.833C214.914 590.201 214.266 592.525 213.039 594.568C211.813 596.611 210.053 598.299 207.94 599.463L11.2211 709.748C8.12107 711.491 5.54868 713.987 3.7572 716.985C1.96594 719.984 1.01671 723.382 1.00036 726.842L1.00037 807.576C1.0188 809.588 1.58115 811.562 2.63513 813.301C3.68927 815.04 5.19874 816.484 7.01501 817.485C8.8316 818.487 10.8907 819.01 12.9847 819C15.0787 818.99 17.1319 818.447 18.9379 817.428L18.9408 817.426L320.528 648.607C323.625 646.848 326.189 644.336 327.967 641.324C329.745 638.313 330.676 634.905 330.671 631.439L330.265 548.567Z" stroke="#FF595A" stroke-width="2"/>
<path d="M250.613 279.83L250.613 279.823C250.607 274.612 252.04 269.492 254.766 264.987C257.493 260.483 261.417 256.756 266.137 254.193L266.146 254.188L717.282 3.2764C719.992 1.77985 723.065 0.994189 726.192 1.00003C729.32 1.00594 732.39 1.80335 735.094 3.31058C737.799 4.81795 740.042 6.98176 741.603 9.58109C743.164 12.1801 743.989 15.1255 744 18.1241L744 132.713C743.753 137.711 742.206 142.571 739.499 146.846C736.785 151.13 732.993 154.689 728.469 157.189L728.465 157.19L434.273 321.415L434.273 321.416C431.192 323.107 428.625 325.557 426.838 328.522C425.048 331.488 424.104 334.863 424.104 338.301C424.104 341.739 425.048 345.113 426.838 348.08C428.625 351.045 431.192 353.495 434.273 355.186L728.464 519.41C733.175 522.047 737.084 525.825 739.807 530.364C742.531 534.903 743.975 540.047 744 545.287L744 665.509C743.971 668.592 743.106 671.618 741.484 674.281C739.862 676.945 737.541 679.155 734.75 680.688C731.958 682.22 728.797 683.02 725.581 683.005C722.365 682.989 719.21 682.159 716.435 680.6L716.432 680.599L265.423 429.22C260.718 426.559 256.821 422.757 254.118 418.197C251.415 413.638 249.998 408.479 250.006 403.231L250.613 279.83Z" stroke="#FF595A" stroke-width="2"/>
</g>
</svg>
