<svg width="48" height="48" viewBox="0 0 48 48" fill="none" xmlns="http://www.w3.org/2000/svg">
<path opacity="0.4" d="M48 43.1147H46V20.5209H38.4063V16.5209H34.3109C33.6847 11.9057 30.0216 8.2425 25.4063 7.61625V4.146H30.5938V1.3335H22.5938V7.61634C17.9784 8.24259 14.3153 11.9058 13.6891 16.521H9.59381V20.521H2.00006V43.1148H0V45.9273H9.59381H38.4063H48V43.1147ZM28.451 43.1147H25.4063V34.4763H28.451V43.1147ZM22.5938 43.1147H19.5491V34.4763H22.5938V43.1147ZM31.2635 43.1147V31.6639H16.7366V43.1148H12.4063V19.3335H35.5938V43.1148L31.2635 43.1147ZM4.81256 23.3334H9.59381V43.1147H4.81256V23.3334ZM24 10.3335C27.7066 10.3335 30.7995 13.0036 31.4611 16.521H16.5389C17.2005 13.0036 20.2934 10.3335 24 10.3335ZM38.4063 23.3334H43.1875V43.1147H38.4063V23.3334Z" fill="#846CE6"/>
<path fill-rule="evenodd" clip-rule="evenodd" d="M9.59381 45.9273H38.4063V43.1147V23.3334V20.5209V16.5209H34.3109C33.6847 11.9057 30.0216 8.2425 25.4063 7.61625V4.146H30.5938V1.3335H22.5938V7.61634C17.9784 8.24259 14.3153 11.9058 13.6891 16.521H9.59381V20.521V23.3334V43.1147V45.9273ZM28.451 43.1147H25.4063V34.4763H28.451V43.1147ZM22.5938 43.1147H19.5491V34.4763H22.5938V43.1147ZM31.2635 43.1147V31.6639H16.7366V43.1148H12.4063V19.3335H35.5938V43.1148L31.2635 43.1147ZM24 10.3335C27.7066 10.3335 30.7995 13.0036 31.4611 16.521H16.5389C17.2005 13.0036 20.2934 10.3335 24 10.3335Z" fill="#846CE6"/>
<path opacity="0.4" d="M28.5938 22.9272H31.4062V27.9272H28.5938V22.9272Z" fill="#846CE6"/>
<path opacity="0.4" d="M22.5938 22.9272H25.4062V27.9272H22.5938V22.9272Z" fill="#846CE6"/>
<path opacity="0.4" d="M16.5938 22.9272H19.4062V27.9272H16.5938V22.9272Z" fill="#846CE6"/>
</svg>
