<svg width="48" height="48" viewBox="0 0 48 48" fill="none" xmlns="http://www.w3.org/2000/svg">
<path opacity="0.4" d="M22.354 0V5.8125H16.729V11.4375H13.9165V17.0625H2.6665V48H13.9165H33.604H44.854V17.0625H33.604V11.4375H30.7915V5.8125H25.1665V0H22.354ZM13.9165 45.1875H5.479V19.875H13.9165V45.1875ZM33.604 19.875H42.0415V45.1875H33.604V19.875ZM25.1665 45.1875H22.354V42.375H25.1665V45.1875ZM30.7915 45.1875H27.979V39.5625H19.5415V45.1875H16.729V14.25H30.7915V45.1875ZM27.979 8.625V11.4375H19.5415V8.625H27.979Z" fill="#00C9DB"/>
<path fill-rule="evenodd" clip-rule="evenodd" d="M22.354 0V5.8125H16.729V11.4375H13.9165V17.0625V19.875V45.1875V48H33.604V45.1875V19.875V17.0625V11.4375H30.7915V5.8125H25.1665V0H22.354ZM25.1665 45.1875H22.354V42.375H25.1665V45.1875ZM30.7915 45.1875H27.979V39.5625H19.5415V45.1875H16.729V14.25H30.7915V45.1875ZM27.979 8.625V11.4375H19.5415V8.625H27.979Z" fill="#00C9DB"/>
<path opacity="0.4" d="M19.5415 17.0625H27.979V19.875H19.5415V17.0625Z" fill="#00C9DB"/>
<path opacity="0.4" d="M19.5415 22.6875H27.979V25.5H19.5415V22.6875Z" fill="#00C9DB"/>
<path opacity="0.4" d="M19.5415 28.3125H27.979V31.125H19.5415V28.3125Z" fill="#00C9DB"/>
<path opacity="0.4" d="M19.5415 33.9375H27.979V36.75H19.5415V33.9375Z" fill="#00C9DB"/>
<path opacity="0.4" d="M8.2915 22.6875H11.104V25.5H8.2915V22.6875Z" fill="#00C9DB"/>
<path opacity="0.4" d="M8.2915 28.3125H11.104V31.125H8.2915V28.3125Z" fill="#00C9DB"/>
<path opacity="0.4" d="M8.2915 33.9375H11.104V36.75H8.2915V33.9375Z" fill="#00C9DB"/>
<path opacity="0.4" d="M8.2915 39.5625H11.104V42.375H8.2915V39.5625Z" fill="#00C9DB"/>
<path opacity="0.4" d="M36.4165 22.6875H39.229V25.5H36.4165V22.6875Z" fill="#00C9DB"/>
<path opacity="0.4" d="M36.4165 28.3125H39.229V31.125H36.4165V28.3125Z" fill="#00C9DB"/>
<path opacity="0.4" d="M36.4165 33.9375H39.229V36.75H36.4165V33.9375Z" fill="#00C9DB"/>
<path opacity="0.4" d="M36.4165 39.5625H39.229V42.375H36.4165V39.5625Z" fill="#00C9DB"/>
</svg>
