<svg width="60" height="60" viewBox="0 0 60 60" fill="none" xmlns="http://www.w3.org/2000/svg">
<g clip-path="url(#clip0_318_1194)">
<path d="M44.6526 34.171L32.4916 14.3613C32.3721 14.1553 32.2007 13.9842 31.9944 13.8653C31.7881 13.7463 31.5542 13.6835 31.316 13.6832H27.7892C27.5497 13.6831 27.3145 13.7462 27.1072 13.8662C26.9 13.9861 26.728 14.1585 26.6087 14.3662L14.6624 34.8979C14.5556 35.0975 14.4998 35.3203 14.4998 35.5466C14.4998 35.773 14.5556 35.9958 14.6624 36.1954L15.9941 38.2979C16.1102 38.4825 16.2714 38.6345 16.4626 38.7395C16.6538 38.8445 16.8686 38.899 17.0867 38.8979H42.1355C42.3883 38.8973 42.636 38.8268 42.8512 38.6942C43.0664 38.5616 43.2408 38.3721 43.355 38.1466L44.6916 35.4686C44.7924 35.2658 44.8416 35.0413 44.8348 34.8149C44.828 34.5886 44.7654 34.3674 44.6526 34.171ZM31.3892 34.6344C31.3892 34.7936 31.326 34.9462 31.2135 35.0587C31.1009 35.1712 30.9483 35.2344 30.7892 35.2344H27.9648C27.8845 35.2364 27.8047 35.2223 27.73 35.1931C27.6552 35.1639 27.587 35.1201 27.5293 35.0642C27.4717 35.0084 27.4257 34.9416 27.3941 34.8678C27.3625 34.7941 27.3459 34.7147 27.3453 34.6344V30.6783C27.3455 30.6174 27.3617 30.5576 27.3924 30.5049C27.4231 30.4522 27.4671 30.4086 27.5201 30.3784C27.573 30.3482 27.633 30.3326 27.694 30.333C27.7549 30.3334 27.8147 30.3499 27.8672 30.3808L31.0819 32.2735C31.171 32.3272 31.2448 32.403 31.2961 32.4936C31.3473 32.5842 31.3744 32.6865 31.3746 32.7905L31.3892 34.6344ZM30.7599 30.732L27.7892 29.0198C27.7095 28.9738 27.6432 28.9077 27.597 28.8281C27.5508 28.7485 27.5262 28.6582 27.5258 28.5662V21.0003C27.5228 20.9083 27.546 20.8173 27.5926 20.7379C27.6393 20.6584 27.7074 20.5938 27.7892 20.5515L30.7599 18.854C30.8393 18.8087 30.9292 18.7851 31.0206 18.7854C31.112 18.7858 31.2017 18.8102 31.2807 18.8561C31.3598 18.9021 31.4253 18.9679 31.4709 19.0472C31.5165 19.1264 31.5404 19.2162 31.5404 19.3076V30.293C31.5379 30.3831 31.5122 30.4711 31.4656 30.5483C31.419 30.6256 31.3532 30.6894 31.2745 30.7336C31.1959 30.7778 31.1072 30.8009 31.017 30.8006C30.9268 30.8004 30.8382 30.7767 30.7599 30.732Z" fill="#FF595A"/>
<path opacity="0.2" d="M29.5113 60.0003C28.9647 59.9778 28.4342 59.8094 27.9747 59.5125L6.1357 48.2149C5.736 47.9543 5.40061 47.6064 5.15474 47.1975C4.90887 46.7886 4.75893 46.3292 4.71618 45.8539L1.00399 11.9954V11.9564C0.983654 11.6866 1.04137 11.4167 1.17025 11.1788C1.29913 10.941 1.49372 10.7452 1.73082 10.6149L6.60887 7.68809C6.81605 7.55239 7.05877 7.4811 7.30643 7.48321C7.62147 7.47622 7.92709 7.59096 8.15968 7.80356C8.39228 8.01617 8.53394 8.31027 8.55521 8.62468L12.0333 42.5466C12.0561 42.685 12.1073 42.817 12.1837 42.9346C12.2601 43.0521 12.36 43.1526 12.4772 43.2296L29.1406 51.4588C29.227 51.5214 29.3315 51.554 29.4381 51.5515C29.5454 51.5528 29.6507 51.5223 29.7406 51.4637L46.9845 43.2344C47.2247 43.0333 47.3812 42.7498 47.4235 42.4393L50.9016 8.73687C50.918 8.42064 51.054 8.12247 51.282 7.90272C51.5261 7.65589 51.8569 7.51412 52.204 7.5076C52.4377 7.50765 52.6665 7.57543 52.8625 7.70272L57.6235 10.732C57.8555 10.8632 58.0455 11.0575 58.1716 11.2923C58.2977 11.5272 58.3546 11.793 58.3357 12.0588V12.0978L54.5113 45.8539C54.4602 46.3315 54.3064 46.7923 54.0606 47.2049C53.8147 47.6174 53.4826 47.972 53.0869 48.2442L30.9698 59.5125C30.5453 59.8245 30.0333 59.9952 29.5064 60.0003" fill="#FF595A"/>
<path opacity="0.2" d="M11.5745 7.50758C11.3454 7.48327 11.1235 7.41283 10.9223 7.30049C10.7211 7.18815 10.5447 7.03624 10.4038 6.85392L10.3355 6.78563L7.78916 2.23929C7.62197 2.02754 7.53707 1.76243 7.55014 1.49295C7.54625 1.29832 7.58122 1.10487 7.65302 0.923929C7.72482 0.742987 7.832 0.578189 7.96828 0.439183C8.10456 0.300177 8.2672 0.189758 8.44669 0.114391C8.62617 0.039024 8.81889 0.000224084 9.01356 0.000263021H50.2721C50.5525 -0.00499161 50.8287 0.0685797 51.0693 0.212601C51.3099 0.356622 51.5052 0.565307 51.6331 0.814897C51.7447 1.03422 51.7951 1.27964 51.7788 1.52522C51.7625 1.77079 51.6801 2.0074 51.5404 2.21002L49.0526 6.68807C48.9221 6.92122 48.7355 7.11822 48.5099 7.26129C48.2842 7.40436 48.0265 7.489 47.7599 7.50758H11.5745Z" fill="#FF595A"/>
</g>
<defs>
<clipPath id="clip0_318_1194">
<rect width="60" height="60" fill="white"/>
</clipPath>
</defs>
</svg>
